<?xml version="1.0" encoding="utf-8"?>
<svg version="1.1" xmlns:xlink="http://www.w3.org/1999/xlink" width="375px" height="160px" xmlns="http://www.w3.org/2000/svg">
  <g transform="matrix(1 0 0 1 0 -70 )">
    <path d="M 0 70  L 375 70  L 375 230  L 0 230  L 0 70  " fill-rule="nonzero" fill="#cccccc" stroke="none" />
    <path d="M 11 81  L 364 81  L 364 219  L 11 219  L 11 81  " fill-rule="nonzero" fill="#ffffff" stroke="none" />
    <path d="M 207 118  C 200.28 118  195 112.72  195 106  C 195 99.28  200.28 94  207 94  C 213.72 94  219 99.28  219 106  C 219 112.72  213.72 118  207 118  " fill-rule="nonzero" fill="#cccccc" stroke="none" />
    <path d="M 15 215  L 15 143.5  L 101.25 111  L 222 181.72  L 291 130.5  L 360 181.72  L 360 215  L 15 215  " fill-rule="nonzero" fill="#169bd5" stroke="none" />
  </g>
</svg>