<?xml version="1.0" encoding="utf-8"?>
<svg version="1.1" xmlns:xlink="http://www.w3.org/1999/xlink" width="18px" height="22px" xmlns="http://www.w3.org/2000/svg">
  <defs>
    <mask fill="white" id="clip15">
      <path d="M 12.181640625 9.92578125  C 13.060546875 9.20963541666667  13.5 8.34548611111111  13.5 7.33333333333333  C 13.5 6.32118055555555  13.060546875 5.45703125  12.181640625 4.74088541666667  C 11.302734375 4.02473958333333  10.2421875 3.66666666666667  9 3.66666666666667  C 7.7578125 3.66666666666667  6.697265625 4.02473958333333  5.818359375 4.74088541666667  C 4.939453125 5.45703125  4.5 6.32118055555555  4.5 7.33333333333333  C 4.5 8.34548611111111  4.939453125 9.20963541666667  5.818359375 9.92578125  C 6.697265625 10.6419270833333  7.7578125 11  9 11  C 10.2421875 11  11.302734375 10.6419270833333  12.181640625 9.92578125  Z M 15.36328125 2.1484375  C 17.12109375 3.58072916666667  18 5.30902777777778  18 7.33333333333333  C 18 8.37413194444444  17.806640625 9.22873263888889  17.419921875 9.89713541666667  L 11.021484375 20.9830729166667  C 10.833984375 21.2981770833333  10.5556640625 21.5464409722222  10.1865234375 21.7278645833333  C 9.8173828125 21.9092881944444  9.421875 22  9 22  C 8.578125 22  8.1826171875 21.9092881944444  7.8134765625 21.7278645833333  C 7.4443359375 21.5464409722222  7.171875 21.2981770833333  6.99609375 20.9830729166667  L 0.580078125 9.89713541666667  C 0.193359375 9.22873263888889  0 8.37413194444444  0 7.33333333333333  C 0 5.30902777777778  0.87890625 3.58072916666667  2.63671875 2.1484375  C 4.39453125 0.716145833333334  6.515625 0  9 0  C 11.484375 0  13.60546875 0.716145833333334  15.36328125 2.1484375  Z " fill-rule="evenodd" />
    </mask>
  </defs>
  <g transform="matrix(1 0 0 1 -30 -64 )">
    <path d="M 12.181640625 9.92578125  C 13.060546875 9.20963541666667  13.5 8.34548611111111  13.5 7.33333333333333  C 13.5 6.32118055555555  13.060546875 5.45703125  12.181640625 4.74088541666667  C 11.302734375 4.02473958333333  10.2421875 3.66666666666667  9 3.66666666666667  C 7.7578125 3.66666666666667  6.697265625 4.02473958333333  5.818359375 4.74088541666667  C 4.939453125 5.45703125  4.5 6.32118055555555  4.5 7.33333333333333  C 4.5 8.34548611111111  4.939453125 9.20963541666667  5.818359375 9.92578125  C 6.697265625 10.6419270833333  7.7578125 11  9 11  C 10.2421875 11  11.302734375 10.6419270833333  12.181640625 9.92578125  Z M 15.36328125 2.1484375  C 17.12109375 3.58072916666667  18 5.30902777777778  18 7.33333333333333  C 18 8.37413194444444  17.806640625 9.22873263888889  17.419921875 9.89713541666667  L 11.021484375 20.9830729166667  C 10.833984375 21.2981770833333  10.5556640625 21.5464409722222  10.1865234375 21.7278645833333  C 9.8173828125 21.9092881944444  9.421875 22  9 22  C 8.578125 22  8.1826171875 21.9092881944444  7.8134765625 21.7278645833333  C 7.4443359375 21.5464409722222  7.171875 21.2981770833333  6.99609375 20.9830729166667  L 0.580078125 9.89713541666667  C 0.193359375 9.22873263888889  0 8.37413194444444  0 7.33333333333333  C 0 5.30902777777778  0.87890625 3.58072916666667  2.63671875 2.1484375  C 4.39453125 0.716145833333334  6.515625 0  9 0  C 11.484375 0  13.60546875 0.716145833333334  15.36328125 2.1484375  Z " fill-rule="nonzero" fill="#000000" stroke="none" fill-opacity="0" transform="matrix(1 0 0 1 30 64 )" />
    <path d="M 12.181640625 9.92578125  C 13.060546875 9.20963541666667  13.5 8.34548611111111  13.5 7.33333333333333  C 13.5 6.32118055555555  13.060546875 5.45703125  12.181640625 4.74088541666667  C 11.302734375 4.02473958333333  10.2421875 3.66666666666667  9 3.66666666666667  C 7.7578125 3.66666666666667  6.697265625 4.02473958333333  5.818359375 4.74088541666667  C 4.939453125 5.45703125  4.5 6.32118055555555  4.5 7.33333333333333  C 4.5 8.34548611111111  4.939453125 9.20963541666667  5.818359375 9.92578125  C 6.697265625 10.6419270833333  7.7578125 11  9 11  C 10.2421875 11  11.302734375 10.6419270833333  12.181640625 9.92578125  Z " stroke-width="2" stroke="#aaaaaa" fill="none" transform="matrix(1 0 0 1 30 64 )" mask="url(#clip15)" />
    <path d="M 15.36328125 2.1484375  C 17.12109375 3.58072916666667  18 5.30902777777778  18 7.33333333333333  C 18 8.37413194444444  17.806640625 9.22873263888889  17.419921875 9.89713541666667  L 11.021484375 20.9830729166667  C 10.833984375 21.2981770833333  10.5556640625 21.5464409722222  10.1865234375 21.7278645833333  C 9.8173828125 21.9092881944444  9.421875 22  9 22  C 8.578125 22  8.1826171875 21.9092881944444  7.8134765625 21.7278645833333  C 7.4443359375 21.5464409722222  7.171875 21.2981770833333  6.99609375 20.9830729166667  L 0.580078125 9.89713541666667  C 0.193359375 9.22873263888889  0 8.37413194444444  0 7.33333333333333  C 0 5.30902777777778  0.87890625 3.58072916666667  2.63671875 2.1484375  C 4.39453125 0.716145833333334  6.515625 0  9 0  C 11.484375 0  13.60546875 0.716145833333334  15.36328125 2.1484375  Z " stroke-width="2" stroke="#aaaaaa" fill="none" transform="matrix(1 0 0 1 30 64 )" mask="url(#clip15)" />
  </g>
</svg>