<?xml version="1.0" encoding="utf-8"?>
<svg version="1.1" xmlns:xlink="http://www.w3.org/1999/xlink" width="375px" height="150px" xmlns="http://www.w3.org/2000/svg">
  <g transform="matrix(1 0 0 1 0 -40 )">
    <path d="M 0 40  L 375 40  L 375 190  L 0 190  L 0 40  " fill-rule="nonzero" fill="#cccccc" stroke="none" />
    <path d="M 11 51  L 364 51  L 364 179  L 11 179  L 11 51  " fill-rule="nonzero" fill="#ffffff" stroke="none" />
    <path d="M 206.25 85  C 199.95 85  195 80.05  195 73.75  C 195 67.45  199.95 62.5  206.25 62.5  C 212.55 62.5  217.5 67.45  217.5 73.75  C 217.5 80.05  212.55 85  206.25 85  " fill-rule="nonzero" fill="#cccccc" stroke="none" />
    <path d="M 15 175  L 15 109  L 101.25 79  L 222 146.2  L 291 97  L 360 146.2  L 360 175  L 15 175  " fill-rule="nonzero" fill="#169bd5" stroke="none" />
  </g>
</svg>