<?xml version="1.0" encoding="utf-8"?>
<svg version="1.1" xmlns:xlink="http://www.w3.org/1999/xlink" width="335px" height="160px" xmlns="http://www.w3.org/2000/svg">
  <g transform="matrix(1 0 0 1 -20 0 )">
    <path d="M 20 0  L 355 0  L 355 160  L 20 160  L 20 0  " fill-rule="nonzero" fill="#cccccc" stroke="none" />
    <path d="M 31 11  L 344 11  L 344 149  L 31 149  L 31 11  " fill-rule="nonzero" fill="#ffffff" stroke="none" />
    <path d="M 206.2 48  C 199.48 48  194.2 42.72  194.2 36  C 194.2 29.28  199.48 24  206.2 24  C 212.92 24  218.2 29.28  218.2 36  C 218.2 42.72  212.92 48  206.2 48  " fill-rule="nonzero" fill="#cccccc" stroke="none" />
    <path d="M 35 145  L 35 73.5  L 111.25 41  L 218 107.746268656716  L 279 60.5  L 340 107.746268656716  L 340 145  L 35 145  " fill-rule="nonzero" fill="#169bd5" stroke="none" />
  </g>
</svg>